<?xml version="1.0" encoding="UTF-8" standalone="no"?>
<svg
   viewBox="0 0 96 96"
   version="1.1"
   id="svg42"
   sodipodi:docname="favicon.svg"
   width="96"
   height="96"
   inkscape:version="1.2.2 (b0a8486541, 2022-12-01)"
   inkscape:export-filename="favicon.png"
   inkscape:export-xdpi="96"
   inkscape:export-ydpi="96"
   xmlns:inkscape="http://www.inkscape.org/namespaces/inkscape"
   xmlns:sodipodi="http://sodipodi.sourceforge.net/DTD/sodipodi-0.dtd"
   xmlns="http://www.w3.org/2000/svg"
   xmlns:svg="http://www.w3.org/2000/svg">
  <defs
     id="defs46" />
  <sodipodi:namedview
     id="namedview44"
     pagecolor="#ffffff"
     bordercolor="#000000"
     borderopacity="0.25"
     inkscape:showpageshadow="2"
     inkscape:pageopacity="0.0"
     inkscape:pagecheckerboard="0"
     inkscape:deskcolor="#d1d1d1"
     showgrid="false"
     inkscape:zoom="1.8541911"
     inkscape:cx="99.504306"
     inkscape:cy="180.13246"
     inkscape:window-width="1920"
     inkscape:window-height="1149"
     inkscape:window-x="0"
     inkscape:window-y="0"
     inkscape:window-maximized="1"
     inkscape:current-layer="svg42" />
  <clipPath
     id="cl_4">
    <rect
       width="360"
       height="360"
       id="rect2"
       x="0"
       y="0" />
  </clipPath>
  <g
     clip-path="url(#cl_4)"
     id="g40"
     transform="translate(-117.75365,-133.67067)">
    <rect
       fill="#ffffff"
       width="360"
       height="360"
       id="rect5"
       x="0"
       y="0" />
    <path
       fill="#740606"
       transform="translate(140.888,116.882)"
       d="M 4.10156,20.0049 H 20.2881 q 8.2031,0 12.3047,4.3945 4.1015,4.3945 4.1015,12.8906 v 6.9092 q 0,8.4961 -4.1015,12.9151 -4.1016,4.3945 -12.3047,4.3945 H 15.0879 V 90 H 4.10156 Z M 20.2881,51.499 q 2.7099,0 4.0527,-1.4892 1.3672,-1.5137 1.3672,-5.1026 v -8.3008 q 0,-3.6132 -1.3672,-5.1025 -1.3428,-1.5137 -4.0527,-1.5137 H 15.0879 V 51.499 Z"
       id="path7" />
    <path
       fill="none"
       stroke="#000000"
       stroke-width="1"
       stroke-miterlimit="4"
       transform="translate(140.888,116.882)"
       d="M 4.10156,20.0049 H 20.2881 q 8.2031,0 12.3047,4.3945 4.1015,4.3945 4.1015,12.8906 v 6.9092 q 0,8.4961 -4.1015,12.9151 -4.1016,4.3945 -12.3047,4.3945 H 15.0879 V 90 H 4.10156 Z M 20.2881,51.499 q 2.7099,0 4.0527,-1.4892 1.3672,-1.5137 1.3672,-5.1026 v -8.3008 q 0,-3.6132 -1.3672,-5.1025 -1.3428,-1.5137 -4.0527,-1.5137 H 15.0879 V 51.499 Z"
       id="path9" />
    <defs
       id="defs16">
      <linearGradient
         id="gradient_0"
         gradientUnits="userSpaceOnUse"
         x1="-13.125"
         y1="0"
         x2="13.125"
         y2="0">
        <stop
           offset="0"
           stop-color="#BFC2BF"
           id="stop11" />
        <stop
           offset="1"
           stop-color="#888"
           id="stop13" />
      </linearGradient>
    </defs>
    <path
       fill="url(#gradient_0)"
       transform="rotate(90,-19.999995,195)"
       d="m 0,0 z m -11.25,-2.25 c -2.225,-0.5 24.725,-0.5 22.5,0 2.5,-0.445 2.5,4.945 0,4.5 2.225,0.5 -24.725,0.5 -22.5,0 -2.5,0.445 -2.5,-4.945 0,-4.5 z"
       id="path18"
       style="fill:url(#gradient_0)" />
    <defs
       id="defs25">
      <linearGradient
         id="gradient_1"
         gradientUnits="userSpaceOnUse"
         x1="-7.3499999"
         y1="0"
         x2="7.3499999"
         y2="0">
        <stop
           offset="0"
           stop-color="#BFC2BF"
           id="stop20" />
        <stop
           offset="1"
           stop-color="#888"
           id="stop22" />
      </linearGradient>
    </defs>
    <path
       fill="url(#gradient_1)"
       transform="rotate(135,44.229385,147.7792)"
       d="m 0,0 z m -6.3,-2.25 c -1.246,-0.5 13.846,-0.5 12.6,0 1.4,-0.445 1.4,4.945 0,4.5 1.246,0.5 -13.846,0.5 -12.6,0 -1.4,0.445 -1.4,-4.945 0,-4.5 z"
       id="path27"
       style="fill:url(#gradient_1)" />
    <defs
       id="defs34">
      <linearGradient
         id="gradient_2"
         gradientUnits="userSpaceOnUse"
         x1="-7.3499999"
         y1="0"
         x2="7.3499999"
         y2="0">
        <stop
           offset="0"
           stop-color="#D9D9D9"
           id="stop29" />
        <stop
           offset="1"
           stop-color="#888"
           id="stop31" />
      </linearGradient>
    </defs>
    <path
       fill="url(#gradient_2)"
       transform="rotate(45,-181.77069,315.70804)"
       d="m 0,0 z m -6.3,-2.25 c -1.246,-0.5 13.846,-0.5 12.6,0 1.4,-0.445 1.4,4.945 0,4.5 1.246,0.5 -13.846,0.5 -12.6,0 -1.4,0.445 -1.4,-4.945 0,-4.5 z"
       id="path36"
       style="fill:url(#gradient_2)" />
    <path
       transform="matrix(1.3,0,0,1.1,155,171.75)"
       d="M 1.43555,7.50171 H 6.92993 L 9.38232,25.0359 H 9.45068 L 11.9031,7.50171 h 5.4944 V 32 H 13.7573 V 13.449 H 13.689 L 10.8862,32 H 7.66479 L 4.86206,13.449 H 4.7937 V 32 H 1.43555 Z"
       id="path38" />
  </g>
</svg>
