<?xml version="1.0" encoding="utf-8" ?>
<svg xmlns="http://www.w3.org/2000/svg" xmlns:xlink="http://www.w3.org/1999/xlink" width="400" height="200">
	<clipPath id="cl_18">
		<rect width="400" height="200"/>
	</clipPath>
	<g clip-path="url(#cl_18)">
		<rect fill="white" width="400" height="200"/>
		<defs>
			<linearGradient id="gradient_0" gradientUnits="userSpaceOnUse" x1="-14.7" y1="0" x2="14.7" y2="0">
				<stop offset="0" stop-color="#CCC"/>
				<stop offset="1" stop-color="#8C8C8C"/>
			</linearGradient>
		</defs>
		<path fill="url(#gradient_0)" transform="matrix(-3.71547e-08 0.85 -0.85 -3.71547e-08 200 129.15)" d="M0 0ZM-12.6 -2.7C-15.092 -3.3 15.092 -3.3 12.6 -2.7C15.4 -3.234 15.4 3.234 12.6 2.7C15.092 3.3 -15.092 3.3 -12.6 2.7C-15.4 3.234 -15.4 -3.234 -12.6 -2.7Z"/>
		<defs>
			<linearGradient id="gradient_1" gradientUnits="userSpaceOnUse" x1="-8.9250002" y1="0" x2="8.9250002" y2="0">
				<stop offset="0" stop-color="#B8B8B8"/>
				<stop offset="1" stop-color="#8C8C8C"/>
			</linearGradient>
		</defs>
		<path fill="url(#gradient_1)" transform="matrix(-0.601041 0.601041 -0.601041 -0.601041 204 136)" d="M0 0ZM-7.65 -2.7C-9.163 -3.3 9.163 -3.3 7.65 -2.7C9.35 -3.234 9.35 3.234 7.65 2.7C9.163 3.3 -9.163 3.3 -7.65 2.7C-9.35 3.234 -9.35 -3.234 -7.65 -2.7Z"/>
		<defs>
			<linearGradient id="gradient_2" gradientUnits="userSpaceOnUse" x1="-8.9250002" y1="0" x2="8.9250002" y2="0">
				<stop offset="0" stop-color="#DBDBDB"/>
				<stop offset="1" stop-color="#8C8C8C"/>
			</linearGradient>
		</defs>
		<path fill="url(#gradient_2)" transform="matrix(0.601041 0.601041 -0.601041 0.601041 196 136)" d="M0 0ZM-7.65 -2.7C-9.163 -3.3 9.163 -3.3 7.65 -2.7C9.35 -3.234 9.35 3.234 7.65 2.7C9.163 3.3 -9.163 3.3 -7.65 2.7C-9.35 3.234 -9.35 -3.234 -7.65 -2.7Z"/>
		<path transform="translate(100 75)" d="M2.05078 10.0024L10.144 10.0024Q14.2456 10.0024 16.2964 12.1997Q18.3472 14.397 18.3472 18.645L18.3472 22.0996Q18.3472 26.3477 16.2964 28.5571Q14.2456 30.7544 10.144 30.7544L7.54395 30.7544L7.54395 45L2.05078 45L2.05078 10.0024ZM10.144 25.7495Q11.499 25.7495 12.1704 25.0049Q12.854 24.248 12.854 22.4536L12.854 18.3032Q12.854 16.4966 12.1704 15.752Q11.499 14.9951 10.144 14.9951L7.54395 14.9951L7.54395 25.7495L10.144 25.7495ZM21.3508 10.0024L29.5051 10.0024Q33.7531 10.0024 35.694 11.98Q37.6472 13.9453 37.6472 18.0469L37.6472 20.1953Q37.6472 25.6519 34.0461 27.1045L34.0461 27.2021Q36.048 27.8003 36.8659 29.6558Q37.696 31.499 37.696 34.5996L37.696 40.752Q37.696 42.2534 37.7936 43.1812Q37.9035 44.0967 38.2941 45L32.7033 45Q32.3981 44.1455 32.3005 43.4009Q32.2028 42.644 32.2028 40.7031L32.2028 34.2944Q32.2028 31.9019 31.4216 30.9497Q30.6525 29.9976 28.7482 29.9976L26.8439 29.9976L26.8439 45L21.3508 45L21.3508 10.0024ZM28.8459 25.0049Q30.506 25.0049 31.3239 24.1504Q32.154 23.2959 32.154 21.2939L32.154 18.5962Q32.154 16.7041 31.4704 15.8496Q30.799 14.9951 29.3464 14.9951L26.8439 14.9951L26.8439 25.0049L28.8459 25.0049ZM41.5007 10.0024L56.5032 10.0024L56.5032 14.9951L46.9939 14.9951L46.9939 24.248L54.5501 24.248L54.5501 29.2529L46.9939 29.2529L46.9939 39.9951L56.5032 39.9951L56.5032 45L41.5007 45L41.5007 10.0024ZM63.8988 10.0024L71.3451 10.0024L77.0457 45L71.5526 45L70.5516 38.0542L70.5516 38.1519L64.3016 38.1519L63.3006 45L58.1981 45L63.8988 10.0024ZM69.9046 33.4033L67.451 16.106L67.3534 16.106L64.9486 33.4033L69.9046 33.4033ZM79.7007 10.0024L87.5498 10.0024L91.0533 35.0513L91.1509 35.0513L94.6543 10.0024L102.503 10.0024L102.503 45L97.3033 45L97.3033 18.4985L97.2056 18.4985L93.2017 45L88.5996 45L84.5957 18.4985L84.4981 18.4985L84.4981 45L79.7007 45L79.7007 10.0024ZM106.601 10.0024L114.901 10.0024Q119.15 10.0024 121.103 11.98Q123.056 13.9453 123.056 18.0469L123.056 19.4507Q123.056 22.1484 122.177 23.8574Q121.298 25.5542 119.504 26.2988L119.504 26.3965Q123.605 27.8003 123.605 33.6963L123.605 36.6992Q123.605 40.752 121.469 42.876Q119.345 45 115.255 45L106.601 45L106.601 10.0024ZM114.255 24.248Q115.902 24.248 116.72 23.4058Q117.55 22.5513 117.55 20.5493L117.55 18.5962Q117.55 16.7041 116.867 15.8496Q116.195 14.9951 114.755 14.9951L112.094 14.9951L112.094 24.248L114.255 24.248ZM115.255 39.9951Q116.696 39.9951 117.392 39.2261Q118.1 38.4448 118.1 36.5527L118.1 33.501Q118.1 31.0962 117.27 30.1807Q116.452 29.2529 114.547 29.2529L112.094 29.2529L112.094 39.9951L115.255 39.9951ZM134.796 45.5005Q130.805 45.5005 128.705 43.23Q126.605 40.9473 126.605 36.6992L126.605 10.0024L132.099 10.0024L132.099 37.1021Q132.099 38.8965 132.819 39.7021Q133.551 40.4956 134.894 40.4956Q136.249 40.4956 136.969 39.7021Q137.702 38.8965 137.702 37.1021L137.702 10.0024L142.999 10.0024L142.999 36.6992Q142.999 40.9473 140.9 43.23Q138.8 45.5005 134.796 45.5005ZM146.901 10.0024L152.394 10.0024L152.394 39.9951L161.451 39.9951L161.451 45L146.901 45L146.901 10.0024ZM168.549 10.0024L175.995 10.0024L181.696 45L176.202 45L175.202 38.0542L175.202 38.1519L168.952 38.1519L167.951 45L162.848 45L168.549 10.0024ZM174.555 33.4033L172.101 16.106L172.003 16.106L169.598 33.4033L174.555 33.4033Z"/>
		<path fill="#5A2020" transform="translate(100 75)" d="M2.05078 10.0024L10.144 10.0024Q14.2456 10.0024 16.2964 12.1997Q18.3472 14.397 18.3472 18.645L18.3472 22.0996Q18.3472 26.3477 16.2964 28.5571Q14.2456 30.7544 10.144 30.7544L7.54395 30.7544L7.54395 45L2.05078 45L2.05078 10.0024ZM10.144 25.7495Q11.499 25.7495 12.1704 25.0049Q12.854 24.248 12.854 22.4536L12.854 18.3032Q12.854 16.4966 12.1704 15.752Q11.499 14.9951 10.144 14.9951L7.54395 14.9951L7.54395 25.7495L10.144 25.7495Z"/>
		<path fill="none" stroke="black" stroke-width="1" stroke-miterlimit="4" transform="translate(100 75)" d="M2.05078 10.0024L10.144 10.0024Q14.2456 10.0024 16.2964 12.1997Q18.3472 14.397 18.3472 18.645L18.3472 22.0996Q18.3472 26.3477 16.2964 28.5571Q14.2456 30.7544 10.144 30.7544L7.54395 30.7544L7.54395 45L2.05078 45L2.05078 10.0024ZM10.144 25.7495Q11.499 25.7495 12.1704 25.0049Q12.854 24.248 12.854 22.4536L12.854 18.3032Q12.854 16.4966 12.1704 15.752Q11.499 14.9951 10.144 14.9951L7.54395 14.9951L7.54395 25.7495L10.144 25.7495Z"/>
	</g>
</svg>
